<?xml version="1.0" encoding="UTF-8" standalone="no"?>
<!DOCTYPE svg PUBLIC "-//W3C//DTD SVG 1.1//EN" "http://www.w3.org/Graphics/SVG/1.1/DTD/svg11.dtd">
<svg xmlns="http://www.w3.org/2000/svg" xmlns:xl="http://www.w3.org/1999/xlink" xmlns:dc="http://purl.org/dc/elements/1.1/" version="1.1" viewBox="232.5 903.0057 236 236" width="236" height="236">
  <defs/>
  <metadata> Produced by OmniGraffle 7.25.1\n2026-02-19 01:40:26 +0000</metadata>
  <g id="Canvas_1" fill="none" stroke-dasharray="none" fill-opacity="1" stroke="none" stroke-opacity="1">
    <title>Canvas 1</title>
    <g id="Canvas_1_Layer_1">
      <title>Layer 1</title>
      <g id="Graphic_25">
        <rect x="233" y="903.5057" width="235" height="235" fill="#063626"/>
        <rect x="233" y="903.5057" width="235" height="235" stroke="black" stroke-linecap="round" stroke-linejoin="round" stroke-width="1"/>
      </g>
      <g id="Graphic_38">
        <title>N</title>
        <path d="M 328.37207 963.4923 L 356.9033 1004.8302 L 357.22754 1004.8302 L 357.22754 963.4923 L 412.0205 963.4923 L 412.0205 1088.1544 L 370.5205 1088.1544 L 344.2588 1049.6534 L 343.93457 1049.6534 L 343.93457 1087.1818 L 289.22266 1087.1818 L 289.22266 963.4923 Z" fill="white"/>
      </g>
      <g id="Group_27">
        <g id="Graphic_37">
          <path d="M 341.7217 1012.3788 L 426.1724 1038.5444 C 429.33847 1039.5253 431.10987 1042.8871 430.1289 1046.0532 L 430.1289 1046.0532 C 429.14796 1049.2193 425.7861 1050.9907 422.62003 1050.0098 C 422.62003 1050.0098 422.62003 1050.0098 422.62003 1050.0098 L 338.16935 1023.8442 C 335.00327 1022.8632 333.23187 1019.5014 334.21283 1016.3353 L 334.21283 1016.3353 C 335.1938 1013.1692 338.55562 1011.3978 341.7217 1012.3788 Z" fill="#00fa00"/>
          <path d="M 341.7217 1012.3788 L 426.1724 1038.5444 C 429.33847 1039.5253 431.10987 1042.8871 430.1289 1046.0532 L 430.1289 1046.0532 C 429.14796 1049.2193 425.7861 1050.9907 422.62003 1050.0098 C 422.62003 1050.0098 422.62003 1050.0098 422.62003 1050.0098 L 338.16935 1023.8442 C 335.00327 1022.8632 333.23187 1019.5014 334.21283 1016.3353 L 334.21283 1016.3353 C 335.1938 1013.1692 338.55562 1011.3978 341.7217 1012.3788 Z" stroke="#5e5e5e" stroke-linecap="round" stroke-linejoin="round" stroke-width="1"/>
        </g>
        <g id="Graphic_36">
          <path d="M 393.01516 1056.6607 L 392.33875 1059.227 C 391.79593 1061.2864 393.0254 1063.396 395.0848 1063.9388 C 395.0848 1063.9388 395.0848 1063.9388 395.0848 1063.9388 C 397.1442 1064.4816 399.25375 1063.2521 399.79657 1061.1927 L 400.43597 1058.7669 L 405.80906 1060.2918 L 404.98055 1063.4351 C 404.43773 1065.4945 405.6672 1067.604 407.7266 1068.1469 C 407.7266 1068.1469 407.7266 1068.1469 407.7266 1068.1469 C 409.786 1068.6897 411.89555 1067.4602 412.43836 1065.4008 L 413.22987 1062.3979 L 414.1796 1062.6674 C 414.1796 1062.6674 414.1796 1062.6674 414.1796 1062.6674 C 415.2422 1062.969 416.3481 1062.3521 416.64967 1061.2895 L 420.0504 1049.307 C 420.352 1048.2444 419.73506 1047.1385 418.67245 1046.837 L 395.4773 1040.2539 L 395.4773 1040.2539 C 394.4147 1039.9523 393.3088 1040.5693 393.0072 1041.6319 L 389.60647 1053.6143 C 389.3049 1054.677 389.92183 1055.7828 390.98443 1056.0844 Z" fill="#00fa00"/>
          <path d="M 393.01516 1056.6607 L 392.33875 1059.227 C 391.79593 1061.2864 393.0254 1063.396 395.0848 1063.9388 C 395.0848 1063.9388 395.0848 1063.9388 395.0848 1063.9388 C 397.1442 1064.4816 399.25375 1063.2521 399.79657 1061.1927 L 400.43597 1058.7669 L 405.80906 1060.2918 L 404.98055 1063.4351 C 404.43773 1065.4945 405.6672 1067.604 407.7266 1068.1469 C 407.7266 1068.1469 407.7266 1068.1469 407.7266 1068.1469 C 409.786 1068.6897 411.89555 1067.4602 412.43836 1065.4008 L 413.22987 1062.3979 L 414.1796 1062.6674 C 414.1796 1062.6674 414.1796 1062.6674 414.1796 1062.6674 C 415.2422 1062.969 416.3481 1062.3521 416.64967 1061.2895 L 420.0504 1049.307 C 420.352 1048.2444 419.73506 1047.1385 418.67245 1046.837 L 395.4773 1040.2539 L 395.4773 1040.2539 C 394.4147 1039.9523 393.3088 1040.5693 393.0072 1041.6319 L 389.60647 1053.6143 C 389.3049 1054.677 389.92183 1055.7828 390.98443 1056.0844 Z" stroke="#5e5e5e" stroke-linecap="round" stroke-linejoin="round" stroke-width="1"/>
        </g>
        <g id="Graphic_35">
          <path d="M 350.59554 1007.6033 L 350.59554 1007.6033 C 352.8527 1008.1983 354.2002 1010.5104 353.60526 1012.7675 L 349.12995 1029.7465 C 348.535 1032.0037 346.22292 1033.3512 343.96576 1032.7562 L 343.96576 1032.7562 C 341.7086 1032.1613 340.3611 1029.8492 340.95605 1027.592 C 340.95605 1027.592 340.95605 1027.592 340.95605 1027.592 L 345.43136 1010.613 C 346.0263 1008.3559 348.3384 1007.0084 350.59554 1007.6033 Z" fill="#00fa00"/>
          <path d="M 350.59554 1007.6033 L 350.59554 1007.6033 C 352.8527 1008.1983 354.2002 1010.5104 353.60526 1012.7675 L 349.12995 1029.7465 C 348.535 1032.0037 346.22292 1033.3512 343.96576 1032.7562 L 343.96576 1032.7562 C 341.7086 1032.1613 340.3611 1029.8492 340.95605 1027.592 C 340.95605 1027.592 340.95605 1027.592 340.95605 1027.592 L 345.43136 1010.613 C 346.0263 1008.3559 348.3384 1007.0084 350.59554 1007.6033 Z" stroke="#5e5e5e" stroke-linecap="round" stroke-linejoin="round" stroke-width="1"/>
        </g>
        <g id="Graphic_34">
          <path d="M 327.08 1015.9416 C 323.4124 1028.5779 310.28416 1035.5583 297.7573 1031.5327 C 285.2304 1027.5073 278.0486 1014.0003 281.71628 1001.364 C 285.3839 988.7277 298.51213 981.7473 311.039 985.7728 C 323.5659 989.7983 330.7477 1003.3053 327.08 1015.9416" stroke="#5e5e5e" stroke-linecap="round" stroke-linejoin="round" stroke-width="19"/>
        </g>
        <g id="Graphic_33">
          <path d="M 358.9841 1009.8144 L 358.9841 1009.8144 C 360.09228 1010.1065 360.75385 1011.2416 360.46175 1012.3498 L 354.88974 1033.4896 C 354.59765 1034.5978 353.4625 1035.2594 352.3543 1034.9673 C 352.3543 1034.9673 352.3543 1034.9673 352.3543 1034.9673 L 352.3543 1034.9673 C 351.24614 1034.6752 350.58457 1033.54 350.87666 1032.4319 L 356.44867 1011.292 C 356.74077 1010.1839 357.8759 1009.5223 358.9841 1009.8144 Z" fill="#00fa00"/>
          <path d="M 358.9841 1009.8144 L 358.9841 1009.8144 C 360.09228 1010.1065 360.75385 1011.2416 360.46175 1012.3498 L 354.88974 1033.4896 C 354.59765 1034.5978 353.4625 1035.2594 352.3543 1034.9673 C 352.3543 1034.9673 352.3543 1034.9673 352.3543 1034.9673 L 352.3543 1034.9673 C 351.24614 1034.6752 350.58457 1033.54 350.87666 1032.4319 L 356.44867 1011.292 C 356.74077 1010.1839 357.8759 1009.5223 358.9841 1009.8144 Z" stroke="#5e5e5e" stroke-linecap="round" stroke-linejoin="round" stroke-width="1"/>
        </g>
        <g id="Graphic_32">
          <path d="M 388.4673 1035.8753 L 388.4673 1035.8753 C 389.6038 1036.1749 390.2823 1037.339 389.98275 1038.4756 L 386.30716 1052.4205 C 386.0076 1053.557 384.8434 1054.2355 383.7069 1053.936 C 383.7069 1053.936 383.7069 1053.936 383.7069 1053.936 L 383.7069 1053.936 C 382.57037 1053.6364 381.8919 1052.4722 382.19145 1051.3357 L 385.86703 1037.3908 C 386.1666 1036.2542 387.33077 1035.5757 388.4673 1035.8753 Z" fill="#00fa00"/>
          <path d="M 388.4673 1035.8753 L 388.4673 1035.8753 C 389.6038 1036.1749 390.2823 1037.339 389.98275 1038.4756 L 386.30716 1052.4205 C 386.0076 1053.557 384.8434 1054.2355 383.7069 1053.936 C 383.7069 1053.936 383.7069 1053.936 383.7069 1053.936 L 383.7069 1053.936 C 382.57037 1053.6364 381.8919 1052.4722 382.19145 1051.3357 L 385.86703 1037.3908 C 386.1666 1036.2542 387.33077 1035.5757 388.4673 1035.8753 Z" stroke="#5e5e5e" stroke-linecap="round" stroke-linejoin="round" stroke-width="1"/>
        </g>
        <g id="Graphic_31">
          <path d="M 381.33235 1031.7084 L 381.33235 1031.7084 C 382.46887 1032.008 383.14736 1033.1722 382.8478 1034.3087 L 377.29858 1055.362 C 376.999 1056.4986 375.83483 1057.177 374.6983 1056.8775 C 374.6983 1056.8775 374.6983 1056.8775 374.6983 1056.8775 L 374.6983 1056.8775 C 373.5618 1056.5779 372.8833 1055.4137 373.18286 1054.2772 L 378.7321 1033.2239 C 379.03164 1032.0873 380.19582 1031.4088 381.33235 1031.7084 Z" fill="#00fa00"/>
          <path d="M 381.33235 1031.7084 L 381.33235 1031.7084 C 382.46887 1032.008 383.14736 1033.1722 382.8478 1034.3087 L 377.29858 1055.362 C 376.999 1056.4986 375.83483 1057.177 374.6983 1056.8775 C 374.6983 1056.8775 374.6983 1056.8775 374.6983 1056.8775 L 374.6983 1056.8775 C 373.5618 1056.5779 372.8833 1055.4137 373.18286 1054.2772 L 378.7321 1033.2239 C 379.03164 1032.0873 380.19582 1031.4088 381.33235 1031.7084 Z" stroke="#5e5e5e" stroke-linecap="round" stroke-linejoin="round" stroke-width="1"/>
        </g>
        <g id="Graphic_30">
          <circle cx="410.25033" cy="1052.6201" r="3.10000499968958" fill="#333"/>
        </g>
        <g id="Graphic_29">
          <circle cx="400.2736" cy="1049.8047" r="3.10000499968961" fill="#333"/>
        </g>
        <g id="Graphic_28">
          <path d="M 335.49028 990.7017 C 325.5762 973.53 303.61883 967.6465 286.4471 977.5607 C 269.2753 987.4747 263.39185 1009.4321 273.306 1026.6038 C 283.2201 1043.7756 305.17746 1049.6591 322.3492 1039.7449 C 339.521 1029.8308 345.40444 1007.8735 335.49028 990.7017 M 321.8235 998.4109 C 327.36147 1008.0029 324.075 1020.2682 314.48296 1025.8061 C 304.89095 1031.3441 292.6257 1028.0576 287.08778 1018.4656 C 281.5498 1008.8736 284.83626 996.6083 294.4283 991.0704 C 304.0203 985.5324 316.28555 988.8189 321.8235 998.4109" fill="#00fa00"/>
          <path d="M 335.49028 990.7017 C 325.5762 973.53 303.61883 967.6465 286.4471 977.5607 C 269.2753 987.4747 263.39185 1009.4321 273.306 1026.6038 C 283.2201 1043.7756 305.17746 1049.6591 322.3492 1039.7449 C 339.521 1029.8308 345.40444 1007.8735 335.49028 990.7017 M 321.8235 998.4109 C 327.36147 1008.0029 324.075 1020.2682 314.48296 1025.8061 C 304.89095 1031.3441 292.6257 1028.0576 287.08778 1018.4656 C 281.5498 1008.8736 284.83626 996.6083 294.4283 991.0704 C 304.0203 985.5324 316.28555 988.8189 321.8235 998.4109" stroke="#5e5e5e" stroke-linecap="round" stroke-linejoin="round" stroke-width="1"/>
        </g>
      </g>
    </g>
  </g>
</svg>
